<?xml version="1.0" encoding="UTF-8" standalone="no"?>
<!-- Created with Inkscape (http://www.inkscape.org/) -->

<svg
   xmlns:dc="http://purl.org/dc/elements/1.1/"
   xmlns:cc="http://creativecommons.org/ns#"
   xmlns:rdf="http://www.w3.org/1999/02/22-rdf-syntax-ns#"
   xmlns:svg="http://www.w3.org/2000/svg"
   xmlns="http://www.w3.org/2000/svg"
   xmlns:sodipodi="http://sodipodi.sourceforge.net/DTD/sodipodi-0.dtd"
   xmlns:inkscape="http://www.inkscape.org/namespaces/inkscape"
   width="63.944004mm"
   height="7.9601784mm"
   viewBox="0 0 63.944004 7.9601784"
   version="1.1"
   id="svg8"
   inkscape:version="0.92.4 (unknown)"
   sodipodi:docname="logo.svg">
  <defs
     id="defs2" />
  <sodipodi:namedview
     id="base"
     pagecolor="#ffffff"
     bordercolor="#666666"
     borderopacity="1.0"
     inkscape:pageopacity="0.0"
     inkscape:pageshadow="2"
     inkscape:zoom="0.98994949"
     inkscape:cx="325.40234"
     inkscape:cy="-107.45117"
     inkscape:document-units="mm"
     inkscape:current-layer="layer1"
     showgrid="false"
     fit-margin-top="0"
     fit-margin-left="0"
     fit-margin-right="0"
     fit-margin-bottom="0"
     inkscape:window-width="1920"
     inkscape:window-height="1018"
     inkscape:window-x="0"
     inkscape:window-y="34"
     inkscape:window-maximized="1" />
  <metadata
     id="metadata5">
    <rdf:RDF>
      <cc:Work
         rdf:about="">
        <dc:format>image/svg+xml</dc:format>
        <dc:type
           rdf:resource="http://purl.org/dc/dcmitype/StillImage" />
        <dc:title></dc:title>
      </cc:Work>
    </rdf:RDF>
  </metadata>
  <g
     inkscape:label="Layer 1"
     inkscape:groupmode="layer"
     id="layer1"
     transform="translate(-53.423152,-79.875362)">
    <g
       aria-label="&gt;tattlenet"
       style="font-style:normal;font-variant:normal;font-weight:normal;font-stretch:normal;font-size:10.58333302px;line-height:1.25;font-family:'LCD Solid';-inkscape-font-specification:'LCD Solid';letter-spacing:0px;word-spacing:0px;fill:#000000;fill-opacity:1;stroke:none;stroke-width:0.26458332"
       id="text12">
      <path
         d="m 53.513866,79.875362 h 1.035655 q 0.09072,0.01512 0.09072,0.09071 v 1.035655 h 1.028095 q 0.09827,0.01512 0.09827,0.09071 V 82.12054 H 56.7947 q 0.09071,0.01512 0.09071,0.09827 v 1.028095 h 1.035655 q 0.09071,0.01512 0.09071,0.09072 v 1.035654 q 0,0.09072 -0.09071,0.09072 h -1.035655 v 1.028095 q 0,0.09827 -0.09071,0.09827 h -1.028095 v 1.028095 q 0,0.09071 -0.09827,0.09071 h -1.028095 v 1.035655 q 0,0.09071 -0.09072,0.09071 h -1.035655 q -0.09071,0 -0.09071,-0.09071 v -1.035655 q 0.01512,-0.09071 0.09071,-0.09071 h 1.035655 v -1.028095 q 0.01512,-0.09827 0.09072,-0.09827 h 1.028095 v -1.028095 q 0.01512,-0.09072 0.09827,-0.09072 H 56.7947 v -1.035654 h -1.028095 q -0.09827,0 -0.09827,-0.09072 v -1.028095 h -1.028095 q -0.09072,0 -0.09072,-0.09827 v -1.028095 h -1.035655 q -0.09071,0 -0.09071,-0.09071 v -1.035655 q 0.01512,-0.09071 0.09071,-0.09071 z"
         style="stroke-width:0.26458332"
         id="path14" />
      <path
         d="m 61.125244,79.875362 h 1.028095 q 0.09827,0.01512 0.09827,0.09071 v 2.146905 h 1.020535 q 0.09827,0.01512 0.09827,0.09827 v 1.020535 q 0,0.09827 -0.09827,0.09827 h -1.020535 v 3.265714 h 2.139345 v -1.028095 q 0.01512,-0.09827 0.09827,-0.09827 h 1.020535 q 0.09827,0.01512 0.09827,0.09827 v 1.028095 q 0,0.09072 -0.09827,0.09072 h -1.020535 v 1.028095 q 0,0.09071 -0.09827,0.09071 h -2.139345 q -0.09827,0 -0.09827,-0.09071 v -1.028095 h -1.028095 q -0.09072,0 -0.09072,-0.09072 v -3.265714 h -1.028095 q -0.09071,0 -0.09071,-0.09827 v -1.020535 q 0.01512,-0.09827 0.09071,-0.09827 h 1.028095 v -2.146905 q 0.01512,-0.09071 0.09072,-0.09071 z"
         style="stroke-width:0.26458332"
         id="path16" />
      <path
         d="m 67.610252,82.173457 h 3.235476 q 0.09071,0.01512 0.09071,0.09071 v 1.020536 h 1.020536 q 0.09071,0.01512 0.09071,0.09071 v 4.346726 q 0,0.09071 -0.09071,0.09071 h -4.346726 q -0.09071,0 -0.09071,-0.09071 v -1.020535 h -1.020536 q -0.09071,0 -0.09071,-0.09072 v -1.020535 q 0.01512,-0.09072 0.09071,-0.09072 h 1.020536 v -1.012976 q 0.01512,-0.09071 0.09071,-0.09071 h 3.235476 v -1.020536 h -3.235476 q -0.09071,0 -0.09071,-0.09071 v -1.020536 q 0.01512,-0.09071 0.09071,-0.09071 z m 0,3.416905 v 1.020535 h 3.235476 v -1.020535 z"
         style="stroke-width:0.26458332"
         id="path18" />
      <path
         d="m 74.065023,79.875362 h 1.028095 q 0.09827,0.01512 0.09827,0.09071 v 2.146905 h 1.020535 q 0.09827,0.01512 0.09827,0.09827 v 1.020535 q 0,0.09827 -0.09827,0.09827 h -1.020535 v 3.265714 h 2.139345 v -1.028095 q 0.01512,-0.09827 0.09827,-0.09827 h 1.020535 q 0.09827,0.01512 0.09827,0.09827 v 1.028095 q 0,0.09072 -0.09827,0.09072 h -1.020535 v 1.028095 q 0,0.09071 -0.09827,0.09071 h -2.139345 q -0.09827,0 -0.09827,-0.09071 v -1.028095 h -1.028095 q -0.09072,0 -0.09072,-0.09072 v -3.265714 h -1.028095 q -0.09071,0 -0.09071,-0.09827 v -1.020535 q 0.01512,-0.09827 0.09071,-0.09827 h 1.028095 v -2.146905 q 0.01512,-0.09071 0.09072,-0.09071 z"
         style="stroke-width:0.26458332"
         id="path20" />
      <path
         d="m 80.534911,79.875362 h 1.028095 q 0.09827,0.01512 0.09827,0.09071 v 2.146905 h 1.020536 q 0.09827,0.01512 0.09827,0.09827 v 1.020535 q 0,0.09827 -0.09827,0.09827 H 81.66128 v 3.265714 h 2.139345 v -1.028095 q 0.01512,-0.09827 0.09827,-0.09827 h 1.020536 q 0.09827,0.01512 0.09827,0.09827 v 1.028095 q 0,0.09072 -0.09827,0.09072 h -1.020536 v 1.028095 q 0,0.09071 -0.09827,0.09071 H 81.66128 q -0.09827,0 -0.09827,-0.09071 v -1.028095 h -1.028095 q -0.09071,0 -0.09071,-0.09072 v -3.265714 h -1.028095 q -0.09071,0 -0.09071,-0.09827 v -1.020535 q 0.01512,-0.09827 0.09071,-0.09827 h 1.028095 v -2.146905 q 0.01512,-0.09071 0.09071,-0.09071 z"
         style="stroke-width:0.26458332"
         id="path22" />
      <path
         d="m 86.982121,79.890481 h 2.146905 q 0.09071,0.01512 0.09071,0.09071 v 6.614583 h 1.020536 q 0.09827,0.01512 0.09827,0.09072 v 1.028095 q 0,0.09071 -0.09827,0.09071 h -3.258155 q -0.09071,0 -0.09071,-0.09071 v -1.028095 q 0.01512,-0.09072 0.09071,-0.09072 h 1.028096 v -5.495773 h -1.028096 q -0.09071,0 -0.09071,-0.09072 v -1.028095 q 0.01512,-0.09071 0.09071,-0.09071 z"
         style="stroke-width:0.26458332"
         id="path24" />
      <path
         d="m 93.48225,82.181016 h 3.227917 q 0.09071,0.01512 0.09071,0.09072 v 1.020535 h 1.020536 q 0.09071,0.0076 0.09071,0.09072 v 2.124226 q 0,0.09071 -0.09071,0.09071 H 93.48225 v 1.012976 h 3.227917 q 0.09071,0.01512 0.09071,0.09072 v 1.020535 q 0,0.09071 -0.09071,0.09071 H 93.48225 q -0.09071,0 -0.09071,-0.09071 V 86.701612 H 92.371 q -0.09071,0 -0.09071,-0.09072 v -3.227916 q 0.01512,-0.09072 0.09071,-0.09072 h 1.020536 v -1.020535 q 0.0076,-0.09072 0.09071,-0.09072 z m 0,1.201965 v 1.012976 h 3.227917 v -1.012976 z"
         style="stroke-width:0.26458332"
         id="path26" />
      <path
         d="m 98.833327,82.173457 h 1.012976 q 0.09827,0.01512 0.09827,0.09071 v 1.012976 h 1.012973 v -1.012976 q 0.0151,-0.09071 0.0907,-0.09071 h 2.11666 q 0.0983,0.01512 0.0983,0.09071 v 1.012976 h 1.01297 q 0.0907,0.01512 0.0907,0.09827 v 4.331607 q 0,0.09071 -0.0907,0.09071 h -1.01297 q -0.0983,0 -0.0983,-0.09071 v -4.331607 h -2.11666 v 1.012976 q 0,0.09072 -0.0907,0.09072 h -1.012973 v 3.227916 q 0,0.09071 -0.09827,0.09071 h -1.012976 q -0.09071,0 -0.09071,-0.09071 v -5.442857 q 0.01512,-0.09071 0.09071,-0.09071 z"
         style="stroke-width:0.26458332"
         id="path28" />
      <path
         d="m 106.42203,82.181016 h 3.22791 q 0.0907,0.01512 0.0907,0.09072 v 1.020535 h 1.02053 q 0.0907,0.0076 0.0907,0.09072 v 2.124226 q 0,0.09071 -0.0907,0.09071 h -4.33916 v 1.012976 h 3.22791 q 0.0907,0.01512 0.0907,0.09072 v 1.020535 q 0,0.09071 -0.0907,0.09071 h -3.22791 q -0.0907,0 -0.0907,-0.09071 v -1.020535 h -1.02053 q -0.0907,0 -0.0907,-0.09072 v -3.227916 q 0.0151,-0.09072 0.0907,-0.09072 h 1.02053 v -1.020535 q 0.008,-0.09072 0.0907,-0.09072 z m 0,1.201965 v 1.012976 h 3.22791 v -1.012976 z"
         style="stroke-width:0.26458332"
         id="path30" />
      <path
         d="m 112.88436,79.875362 h 1.02809 q 0.0983,0.01512 0.0983,0.09071 v 2.146905 h 1.02053 q 0.0983,0.01512 0.0983,0.09827 v 1.020535 q 0,0.09827 -0.0983,0.09827 h -1.02053 v 3.265714 h 2.13934 v -1.028095 q 0.0151,-0.09827 0.0983,-0.09827 h 1.02053 q 0.0983,0.01512 0.0983,0.09827 v 1.028095 q 0,0.09072 -0.0983,0.09072 h -1.02053 v 1.028095 q 0,0.09071 -0.0983,0.09071 h -2.13934 q -0.0983,0 -0.0983,-0.09071 v -1.028095 h -1.02809 q -0.0907,0 -0.0907,-0.09072 v -3.265714 h -1.02809 q -0.0907,0 -0.0907,-0.09827 v -1.020535 q 0.0151,-0.09827 0.0907,-0.09827 h 1.02809 v -2.146905 q 0.0151,-0.09071 0.0907,-0.09071 z"
         style="stroke-width:0.26458332"
         id="path32" />
    </g>
  </g>
</svg>
